<mxfile host="Electron" agent="Mozilla/5.0 (X11; Linux x86_64) AppleWebKit/537.36 (KHTML, like Gecko) draw.io/28.0.6 Chrome/138.0.7204.100 Electron/37.2.3 Safari/537.36" version="28.0.6">
  <diagram name="Страница — 1" id="7_T_CXf3VQB2QpumuG9U">
    <mxGraphModel dx="983" dy="588" grid="1" gridSize="10" guides="1" tooltips="1" connect="1" arrows="1" fold="1" page="1" pageScale="1" pageWidth="1169" pageHeight="827" math="0" shadow="0">
      <root>
        <mxCell id="0" />
        <mxCell id="1" parent="0" />
        <mxCell id="C3_Qixqz4titLFg0_ax--4" value="Контроллер" style="triangle;whiteSpace=wrap;html=1;" vertex="1" parent="1">
          <mxGeometry x="120" y="60" width="200" height="120" as="geometry" />
        </mxCell>
        <mxCell id="C3_Qixqz4titLFg0_ax--16" style="edgeStyle=orthogonalEdgeStyle;rounded=0;orthogonalLoop=1;jettySize=auto;html=1;exitX=1;exitY=0.5;exitDx=0;exitDy=0;entryX=0;entryY=0.5;entryDx=0;entryDy=0;startArrow=none;startFill=0;endArrow=none;endFill=0;" edge="1" parent="1" source="C3_Qixqz4titLFg0_ax--5" target="C3_Qixqz4titLFg0_ax--6">
          <mxGeometry relative="1" as="geometry" />
        </mxCell>
        <mxCell id="C3_Qixqz4titLFg0_ax--17" style="edgeStyle=orthogonalEdgeStyle;rounded=0;orthogonalLoop=1;jettySize=auto;html=1;exitX=0.5;exitY=1;exitDx=0;exitDy=0;entryX=0.5;entryY=0;entryDx=0;entryDy=0;startArrow=none;startFill=0;endArrow=none;endFill=0;" edge="1" parent="1" source="C3_Qixqz4titLFg0_ax--5" target="C3_Qixqz4titLFg0_ax--7">
          <mxGeometry relative="1" as="geometry" />
        </mxCell>
        <mxCell id="C3_Qixqz4titLFg0_ax--20" style="rounded=0;orthogonalLoop=1;jettySize=auto;html=1;exitX=0.75;exitY=1;exitDx=0;exitDy=0;entryX=0;entryY=0.25;entryDx=0;entryDy=0;endArrow=none;endFill=0;" edge="1" parent="1" source="C3_Qixqz4titLFg0_ax--5" target="C3_Qixqz4titLFg0_ax--8">
          <mxGeometry relative="1" as="geometry" />
        </mxCell>
        <mxCell id="C3_Qixqz4titLFg0_ax--5" value="Сущности" style="rounded=1;whiteSpace=wrap;html=1;fontSize=11;" vertex="1" parent="1">
          <mxGeometry x="365" y="260" width="120" height="60" as="geometry" />
        </mxCell>
        <mxCell id="C3_Qixqz4titLFg0_ax--18" style="edgeStyle=orthogonalEdgeStyle;rounded=0;orthogonalLoop=1;jettySize=auto;html=1;exitX=0.5;exitY=1;exitDx=0;exitDy=0;entryX=0.5;entryY=0;entryDx=0;entryDy=0;startArrow=none;startFill=0;endArrow=none;endFill=0;" edge="1" parent="1" source="C3_Qixqz4titLFg0_ax--6" target="C3_Qixqz4titLFg0_ax--8">
          <mxGeometry relative="1" as="geometry" />
        </mxCell>
        <mxCell id="C3_Qixqz4titLFg0_ax--21" style="rounded=0;orthogonalLoop=1;jettySize=auto;html=1;exitX=0;exitY=0.75;exitDx=0;exitDy=0;entryX=0.75;entryY=0;entryDx=0;entryDy=0;endArrow=none;endFill=0;" edge="1" parent="1" source="C3_Qixqz4titLFg0_ax--6" target="C3_Qixqz4titLFg0_ax--7">
          <mxGeometry relative="1" as="geometry" />
        </mxCell>
        <mxCell id="C3_Qixqz4titLFg0_ax--6" value="Сервисы" style="rounded=1;whiteSpace=wrap;html=1;fontSize=11;" vertex="1" parent="1">
          <mxGeometry x="520" y="260" width="120" height="60" as="geometry" />
        </mxCell>
        <mxCell id="C3_Qixqz4titLFg0_ax--7" value="Репозитории" style="rounded=1;whiteSpace=wrap;html=1;fontSize=11;" vertex="1" parent="1">
          <mxGeometry x="365" y="360" width="120" height="60" as="geometry" />
        </mxCell>
        <mxCell id="C3_Qixqz4titLFg0_ax--8" value="Адаптеры" style="rounded=1;whiteSpace=wrap;html=1;fontSize=11;" vertex="1" parent="1">
          <mxGeometry x="520" y="360" width="120" height="60" as="geometry" />
        </mxCell>
        <mxCell id="C3_Qixqz4titLFg0_ax--9" value="Модель" style="rounded=0;whiteSpace=wrap;html=1;fontSize=20;" vertex="1" parent="1">
          <mxGeometry x="320" y="45" width="370" height="150" as="geometry" />
        </mxCell>
        <mxCell id="C3_Qixqz4titLFg0_ax--10" value="" style="endArrow=none;dashed=1;html=1;dashPattern=1 3;strokeWidth=2;rounded=0;entryX=0.25;entryY=1;entryDx=0;entryDy=0;" edge="1" parent="1" target="C3_Qixqz4titLFg0_ax--9">
          <mxGeometry width="50" height="50" relative="1" as="geometry">
            <mxPoint x="280" y="380" as="sourcePoint" />
            <mxPoint x="340" y="250" as="targetPoint" />
          </mxGeometry>
        </mxCell>
        <mxCell id="C3_Qixqz4titLFg0_ax--11" value="" style="endArrow=none;dashed=1;html=1;dashPattern=1 3;strokeWidth=2;rounded=0;entryX=0.75;entryY=1;entryDx=0;entryDy=0;" edge="1" parent="1" target="C3_Qixqz4titLFg0_ax--9">
          <mxGeometry width="50" height="50" relative="1" as="geometry">
            <mxPoint x="720" y="380" as="sourcePoint" />
            <mxPoint x="750" y="260" as="targetPoint" />
          </mxGeometry>
        </mxCell>
        <mxCell id="C3_Qixqz4titLFg0_ax--14" style="edgeStyle=orthogonalEdgeStyle;rounded=0;orthogonalLoop=1;jettySize=auto;html=1;exitX=0.5;exitY=0;exitDx=0;exitDy=0;entryX=0.5;entryY=1;entryDx=0;entryDy=0;startArrow=none;startFill=0;endArrow=none;endFill=0;" edge="1" parent="1" source="C3_Qixqz4titLFg0_ax--12" target="C3_Qixqz4titLFg0_ax--7">
          <mxGeometry relative="1" as="geometry" />
        </mxCell>
        <mxCell id="C3_Qixqz4titLFg0_ax--12" value="БД" style="shape=datastore;whiteSpace=wrap;html=1;fontSize=9;" vertex="1" parent="1">
          <mxGeometry x="395" y="450" width="60" height="60" as="geometry" />
        </mxCell>
        <mxCell id="C3_Qixqz4titLFg0_ax--13" value="Инфраструктура" style="ellipse;shape=cloud;whiteSpace=wrap;html=1;fontSize=9;" vertex="1" parent="1">
          <mxGeometry x="510" y="450" width="120" height="80" as="geometry" />
        </mxCell>
        <mxCell id="C3_Qixqz4titLFg0_ax--15" style="edgeStyle=orthogonalEdgeStyle;rounded=0;orthogonalLoop=1;jettySize=auto;html=1;exitX=0.5;exitY=1;exitDx=0;exitDy=0;entryX=0.625;entryY=0.2;entryDx=0;entryDy=0;entryPerimeter=0;startArrow=none;startFill=0;endArrow=none;endFill=0;curved=1;" edge="1" parent="1" source="C3_Qixqz4titLFg0_ax--8" target="C3_Qixqz4titLFg0_ax--13">
          <mxGeometry relative="1" as="geometry" />
        </mxCell>
        <mxCell id="C3_Qixqz4titLFg0_ax--25" style="edgeStyle=orthogonalEdgeStyle;rounded=0;orthogonalLoop=1;jettySize=auto;html=1;exitX=0.5;exitY=1;exitDx=0;exitDy=0;entryX=0;entryY=0.5;entryDx=0;entryDy=0;startArrow=none;startFill=0;curved=1;endArrow=none;endFill=0;" edge="1" parent="1" source="C3_Qixqz4titLFg0_ax--22" target="C3_Qixqz4titLFg0_ax--23">
          <mxGeometry relative="1" as="geometry" />
        </mxCell>
        <mxCell id="C3_Qixqz4titLFg0_ax--27" style="edgeStyle=orthogonalEdgeStyle;rounded=0;orthogonalLoop=1;jettySize=auto;html=1;exitX=1;exitY=0.5;exitDx=0;exitDy=0;entryX=0.5;entryY=1;entryDx=0;entryDy=0;endArrow=none;endFill=0;curved=1;" edge="1" parent="1" source="C3_Qixqz4titLFg0_ax--22" target="C3_Qixqz4titLFg0_ax--4">
          <mxGeometry relative="1" as="geometry" />
        </mxCell>
        <mxCell id="C3_Qixqz4titLFg0_ax--22" value="Утилитарные классы" style="rounded=1;whiteSpace=wrap;html=1;" vertex="1" parent="1">
          <mxGeometry x="40" y="220" width="130" height="60" as="geometry" />
        </mxCell>
        <mxCell id="C3_Qixqz4titLFg0_ax--24" style="edgeStyle=orthogonalEdgeStyle;rounded=0;orthogonalLoop=1;jettySize=auto;html=1;exitX=0.75;exitY=0;exitDx=0;exitDy=0;entryX=0;entryY=1;entryDx=0;entryDy=0;curved=1;endArrow=none;endFill=0;" edge="1" parent="1" source="C3_Qixqz4titLFg0_ax--23" target="C3_Qixqz4titLFg0_ax--9">
          <mxGeometry relative="1" as="geometry" />
        </mxCell>
        <mxCell id="C3_Qixqz4titLFg0_ax--23" value="Объекты передачи данных" style="rounded=1;whiteSpace=wrap;html=1;" vertex="1" parent="1">
          <mxGeometry x="130" y="320" width="120" height="60" as="geometry" />
        </mxCell>
        <mxCell id="C3_Qixqz4titLFg0_ax--30" value="" style="endArrow=classic;html=1;rounded=0;entryX=0;entryY=0.5;entryDx=0;entryDy=0;" edge="1" parent="1" target="C3_Qixqz4titLFg0_ax--4">
          <mxGeometry relative="1" as="geometry">
            <mxPoint x="10" y="120" as="sourcePoint" />
            <mxPoint x="110" y="120" as="targetPoint" />
          </mxGeometry>
        </mxCell>
        <mxCell id="C3_Qixqz4titLFg0_ax--31" value="Запрос" style="edgeLabel;resizable=0;html=1;;align=center;verticalAlign=middle;" connectable="0" vertex="1" parent="C3_Qixqz4titLFg0_ax--30">
          <mxGeometry relative="1" as="geometry" />
        </mxCell>
      </root>
    </mxGraphModel>
  </diagram>
</mxfile>
